<svg xmlns="http://www.w3.org/2000/svg" version="1.1" xmlns:xlink="http://www.w3.org/1999/xlink" xmlns:svgjs="http://svgjs.dev/svgjs" width="1000" height="310" viewBox="0 0 1000 310"><g transform="matrix(1,0,0,1,-0.6060606060606233,-0.5450688246042148)"><svg viewBox="0 0 396 123" data-background-color="#1b4571" preserveAspectRatio="xMidYMid meet" height="310" width="1000" xmlns="http://www.w3.org/2000/svg" xmlns:xlink="http://www.w3.org/1999/xlink"><g id="tight-bounds" transform="matrix(1,0,0,1,0.2400000000000091,0.2162692433107054)"><svg viewBox="0 0 395.52 122.56746151337859" height="122.56746151337859" width="395.52"><g><svg viewBox="0 0 602.257371721026 186.63318474303549" height="122.56746151337859" width="395.52"><g transform="matrix(1,0,0,1,206.7373717210259,55.13115687504124)"><svg viewBox="0 0 395.52 76.370870992953" height="76.370870992953" width="395.52"><g id="textblocktransform"><svg viewBox="0 0 395.52 76.370870992953" height="76.370870992953" width="395.52" id="textblock"><g><svg viewBox="0 0 395.52 42.57990430622009" height="42.57990430622009" width="395.52"><g transform="matrix(1,0,0,1,0,0)"><svg width="395.52" viewBox="1.9000000953674316 -35.5 332.1700134277344 36" height="42.57990430622009" data-palette-color="#ffffff"><g class="wordmark-text-0" data-fill-palette-color="primary" id="text-0"><path d="M14.75 0.5L14.75 0.5Q12.2 0.5 9.93-0.15 7.65-0.8 5.88-2.1 4.1-3.4 3.05-5.4 2-7.4 1.9-10.1L1.9-10.1Q1.9-10.55 2.2-10.88 2.5-11.2 3-11.2L3-11.2 5.7-11.2Q6.25-11.2 6.58-10.88 6.9-10.55 7-10.05L7-10.05Q7.2-7.8 8.3-6.43 9.4-5.05 11.1-4.4 12.8-3.75 14.85-3.75L14.85-3.75Q18.65-3.75 20.65-6.25 22.65-8.75 22.65-12.9L22.65-12.9 22.65-30.65 4.9-30.65Q4.4-30.65 4.08-30.98 3.75-31.3 3.75-31.8L3.75-31.8 3.75-33.85Q3.75-34.35 4.08-34.68 4.4-35 4.9-35L4.9-35 26.45-35Q27-35 27.33-34.68 27.65-34.35 27.65-33.8L27.65-33.8 27.65-12.8Q27.65-8.75 26.1-5.75 24.55-2.75 21.7-1.13 18.85 0.5 14.75 0.5ZM47.3 0.5L47.3 0.5Q42.95 0.5 40-0.85 37.05-2.2 35.47-4.33 33.9-6.45 33.8-8.8L33.8-8.8Q33.8-9.2 34.12-9.53 34.45-9.85 34.9-9.85L34.9-9.85 37.45-9.85Q38.05-9.85 38.35-9.55 38.65-9.25 38.75-8.85L38.75-8.85Q39.05-7.65 40-6.48 40.95-5.3 42.72-4.53 44.5-3.75 47.3-3.75L47.3-3.75Q51.6-3.75 53.62-5.28 55.65-6.8 55.65-9.35L55.65-9.35Q55.65-11.1 54.57-12.18 53.5-13.25 51.3-14.1 49.1-14.95 45.6-15.95L45.6-15.95Q41.95-17 39.55-18.25 37.15-19.5 35.97-21.35 34.8-23.2 34.8-26.05L34.8-26.05Q34.8-28.75 36.25-30.88 37.7-33 40.45-34.25 43.2-35.5 47.05-35.5L47.05-35.5Q50.15-35.5 52.47-34.68 54.8-33.85 56.35-32.48 57.9-31.1 58.7-29.53 59.5-27.95 59.55-26.45L59.55-26.45Q59.55-26.1 59.3-25.78 59.05-25.45 58.5-25.45L58.5-25.45 55.85-25.45Q55.5-25.45 55.12-25.65 54.75-25.85 54.55-26.4L54.55-26.4Q54.25-28.45 52.25-29.85 50.25-31.25 47.05-31.25L47.05-31.25Q43.8-31.25 41.77-30 39.75-28.75 39.75-26.1L39.75-26.1Q39.75-24.4 40.7-23.28 41.65-22.15 43.7-21.3 45.75-20.45 49.05-19.5L49.05-19.5Q53.05-18.4 55.6-17.18 58.15-15.95 59.37-14.13 60.6-12.3 60.6-9.45L60.6-9.45Q60.6-6.3 58.95-4.08 57.3-1.85 54.32-0.68 51.35 0.5 47.3 0.5ZM70.8 0L68.3 0Q67.75 0 67.45-0.33 67.14-0.65 67.14-1.15L67.14-1.15 67.14-33.8Q67.14-34.35 67.45-34.68 67.75-35 68.3-35L68.3-35 70.8-35Q71.34-35 71.67-34.68 72-34.35 72-33.8L72-33.8 72-21.4 85.34-34.2Q85.55-34.4 86.02-34.7 86.5-35 87.3-35L87.3-35 90-35Q90.4-35 90.7-34.7 91-34.4 91-34L91-34Q91-33.6 90.8-33.35L90.8-33.35 75.34-18.25 91.8-1.7Q92.05-1.4 92.05-1L92.05-1Q92.05-0.6 91.75-0.3 91.45 0 91.05 0L91.05 0 88.25 0Q87.4 0 86.95-0.33 86.5-0.65 86.3-0.85L86.3-0.85 72-14.9 72-1.15Q72-0.65 71.67-0.33 71.34 0 70.8 0L70.8 0ZM99.04-24.45L97.49-24.45Q96.99-24.45 96.77-24.78 96.54-25.1 96.49-25.55L96.49-25.55 95.64-34.35Q95.59-34.9 95.87-35.2 96.14-35.5 96.64-35.5L96.64-35.5 99.89-35.5Q100.39-35.5 100.69-35.2 100.99-34.9 100.94-34.35L100.94-34.35 100.09-25.55Q100.04-25.1 99.82-24.78 99.59-24.45 99.04-24.45L99.04-24.45ZM119.34 0.5L119.34 0.5Q114.99 0.5 112.04-0.85 109.09-2.2 107.52-4.33 105.94-6.45 105.84-8.8L105.84-8.8Q105.84-9.2 106.17-9.53 106.49-9.85 106.94-9.85L106.94-9.85 109.49-9.85Q110.09-9.85 110.39-9.55 110.69-9.25 110.79-8.85L110.79-8.85Q111.09-7.65 112.04-6.48 112.99-5.3 114.77-4.53 116.54-3.75 119.34-3.75L119.34-3.75Q123.64-3.75 125.67-5.28 127.69-6.8 127.69-9.35L127.69-9.35Q127.69-11.1 126.62-12.18 125.54-13.25 123.34-14.1 121.14-14.95 117.64-15.95L117.64-15.95Q113.99-17 111.59-18.25 109.19-19.5 108.02-21.35 106.84-23.2 106.84-26.05L106.84-26.05Q106.84-28.75 108.29-30.88 109.74-33 112.49-34.25 115.24-35.5 119.09-35.5L119.09-35.5Q122.19-35.5 124.52-34.68 126.84-33.85 128.39-32.48 129.94-31.1 130.74-29.53 131.54-27.95 131.59-26.45L131.59-26.45Q131.59-26.1 131.34-25.78 131.09-25.45 130.54-25.45L130.54-25.45 127.89-25.45Q127.54-25.45 127.17-25.65 126.79-25.85 126.59-26.4L126.59-26.4Q126.29-28.45 124.29-29.85 122.29-31.25 119.09-31.25L119.09-31.25Q115.84-31.25 113.82-30 111.79-28.75 111.79-26.1L111.79-26.1Q111.79-24.4 112.74-23.28 113.69-22.15 115.74-21.3 117.79-20.45 121.09-19.5L121.09-19.5Q125.09-18.4 127.64-17.18 130.19-15.95 131.42-14.13 132.64-12.3 132.64-9.45L132.64-9.45Q132.64-6.3 130.99-4.08 129.34-1.85 126.37-0.68 123.39 0.5 119.34 0.5Z" fill="#ffffff" data-fill-palette-color="primary"></path><path d="M161.84 0.5L161.84 0.5Q157.24 0.5 154.21-1.2 151.19-2.9 149.64-5.95 148.09-9 147.94-13.05L147.94-13.05Q147.89-15.1 147.89-17.45 147.89-19.8 147.94-21.95L147.94-21.95Q148.09-26 149.64-29.05 151.19-32.1 154.21-33.8 157.24-35.5 161.84-35.5L161.84-35.5Q165.29-35.5 167.89-34.55 170.49-33.6 172.21-32 173.94-30.4 174.84-28.43 175.74-26.45 175.84-24.35L175.84-24.35Q175.89-23.9 175.56-23.6 175.24-23.3 174.79-23.3L174.79-23.3 172.04-23.3Q171.59-23.3 171.26-23.55 170.94-23.8 170.79-24.45L170.79-24.45Q169.94-28.35 167.61-29.8 165.29-31.25 161.84-31.25L161.84-31.25Q157.79-31.25 155.44-28.98 153.09-26.7 152.94-21.7L152.94-21.7Q152.79-17.6 152.94-13.3L152.94-13.3Q153.09-8.3 155.44-6.03 157.79-3.75 161.84-3.75L161.84-3.75Q165.29-3.75 167.61-5.2 169.94-6.65 170.79-10.55L170.79-10.55Q170.94-11.2 171.26-11.45 171.59-11.7 172.04-11.7L172.04-11.7 174.79-11.7Q175.24-11.7 175.56-11.43 175.89-11.15 175.84-10.7L175.84-10.7Q175.74-8.6 174.84-6.6 173.94-4.6 172.21-3 170.49-1.4 167.89-0.45 165.29 0.5 161.84 0.5ZM195.74 0.5L195.74 0.5Q191.54 0.5 188.51-1 185.49-2.5 183.86-5.58 182.24-8.65 182.24-13.5L182.24-13.5 182.24-33.8Q182.24-34.35 182.54-34.68 182.84-35 183.39-35L183.39-35 185.94-35Q186.49-35 186.81-34.68 187.14-34.35 187.14-33.8L187.14-33.8 187.14-13.4Q187.14-8.5 189.44-6.15 191.74-3.8 195.74-3.8L195.74-3.8Q199.69-3.8 202.01-6.15 204.34-8.5 204.34-13.4L204.34-13.4 204.34-33.8Q204.34-34.35 204.66-34.68 204.99-35 205.49-35L205.49-35 208.09-35Q208.59-35 208.91-34.68 209.24-34.35 209.24-33.8L209.24-33.8 209.24-13.5Q209.24-8.65 207.61-5.58 205.99-2.5 202.99-1 199.99 0.5 195.74 0.5ZM221.38 0L218.73 0Q218.18 0 217.88-0.33 217.58-0.65 217.58-1.15L217.58-1.15 217.58-33.85Q217.58-34.35 217.88-34.68 218.18-35 218.73-35L218.73-35 221.38-35Q221.93-35 222.23-34.68 222.53-34.35 222.53-33.85L222.53-33.85 222.53-1.15Q222.53-0.65 222.23-0.33 221.93 0 221.38 0L221.38 0ZM242.48 0.5L242.48 0.5Q238.13 0.5 235.18-0.85 232.23-2.2 230.66-4.33 229.08-6.45 228.98-8.8L228.98-8.8Q228.98-9.2 229.31-9.53 229.63-9.85 230.08-9.85L230.08-9.85 232.63-9.85Q233.23-9.85 233.53-9.55 233.83-9.25 233.93-8.85L233.93-8.85Q234.23-7.65 235.18-6.48 236.13-5.3 237.91-4.53 239.68-3.75 242.48-3.75L242.48-3.75Q246.78-3.75 248.81-5.28 250.83-6.8 250.83-9.35L250.83-9.35Q250.83-11.1 249.76-12.18 248.68-13.25 246.48-14.1 244.28-14.95 240.78-15.95L240.78-15.95Q237.13-17 234.73-18.25 232.33-19.5 231.16-21.35 229.98-23.2 229.98-26.05L229.98-26.05Q229.98-28.75 231.43-30.88 232.88-33 235.63-34.25 238.38-35.5 242.23-35.5L242.23-35.5Q245.33-35.5 247.66-34.68 249.98-33.85 251.53-32.48 253.08-31.1 253.88-29.53 254.68-27.95 254.73-26.45L254.73-26.45Q254.73-26.1 254.48-25.78 254.23-25.45 253.68-25.45L253.68-25.45 251.03-25.45Q250.68-25.45 250.31-25.65 249.93-25.85 249.73-26.4L249.73-26.4Q249.43-28.45 247.43-29.85 245.43-31.25 242.23-31.25L242.23-31.25Q238.98-31.25 236.96-30 234.93-28.75 234.93-26.1L234.93-26.1Q234.93-24.4 235.88-23.28 236.83-22.15 238.88-21.3 240.93-20.45 244.23-19.5L244.23-19.5Q248.23-18.4 250.78-17.18 253.33-15.95 254.56-14.13 255.78-12.3 255.78-9.45L255.78-9.45Q255.78-6.3 254.13-4.08 252.48-1.85 249.51-0.68 246.53 0.5 242.48 0.5ZM266.13 0L263.48 0Q262.93 0 262.63-0.33 262.33-0.65 262.33-1.15L262.33-1.15 262.33-33.85Q262.33-34.35 262.63-34.68 262.93-35 263.48-35L263.48-35 266.13-35Q266.68-35 266.98-34.68 267.28-34.35 267.28-33.85L267.28-33.85 267.28-1.15Q267.28-0.65 266.98-0.33 266.68 0 266.13 0L266.13 0ZM279.53 0L277.13 0Q276.58 0 276.28-0.33 275.98-0.65 275.98-1.15L275.98-1.15 275.98-33.8Q275.98-34.35 276.28-34.68 276.58-35 277.13-35L277.13-35 279.43-35Q280.03-35 280.33-34.73 280.63-34.45 280.68-34.3L280.68-34.3 297.28-8.8 297.28-33.8Q297.28-34.35 297.58-34.68 297.88-35 298.43-35L298.43-35 300.83-35Q301.38-35 301.7-34.68 302.03-34.35 302.03-33.8L302.03-33.8 302.03-1.2Q302.03-0.7 301.7-0.35 301.38 0 300.88 0L300.88 0 298.48 0Q297.93 0 297.65-0.3 297.38-0.6 297.28-0.7L297.28-0.7 280.73-25.95 280.73-1.15Q280.73-0.65 280.4-0.33 280.08 0 279.53 0L279.53 0ZM332.92 0L311.87 0Q311.32 0 311.02-0.33 310.72-0.65 310.72-1.15L310.72-1.15 310.72-33.8Q310.72-34.35 311.02-34.68 311.32-35 311.87-35L311.87-35 332.52-35Q333.07-35 333.37-34.68 333.67-34.35 333.67-33.8L333.67-33.8 333.67-31.9Q333.67-31.35 333.37-31.05 333.07-30.75 332.52-30.75L332.52-30.75 315.52-30.75 315.52-19.8 331.42-19.8Q331.97-19.8 332.27-19.48 332.57-19.15 332.57-18.6L332.57-18.6 332.57-16.75Q332.57-16.25 332.27-15.93 331.97-15.6 331.42-15.6L331.42-15.6 315.52-15.6 315.52-4.25 332.92-4.25Q333.47-4.25 333.77-3.95 334.07-3.65 334.07-3.1L334.07-3.1 334.07-1.15Q334.07-0.65 333.77-0.33 333.47 0 332.92 0L332.92 0Z" fill="#bf2051" data-fill-palette-color="accent"></path></g></svg></g></svg></g><g transform="matrix(1,0,0,1,0,52.6319977952153)"><svg viewBox="0 0 232.209792 23.7388731977377" height="23.7388731977377" width="232.209792"><g transform="matrix(1,0,0,1,0,0)"><svg width="232.209792" viewBox="0.800000011920929 -37.650001525878906 468.5 47.900001525878906" height="23.7388731977377" data-palette-color="#ffffff"><path d="M23.4-34.25L26.5-34.25 15.35 0 12 0 0.8-34.25 4.05-34.25 13.7-3.1 23.4-34.25ZM51.15-14.05Q51.15-12.95 51.05-11.95L51.05-11.95 33.6-11.95Q33.85-6.85 36.02-4.38 38.2-1.9 41.75-1.9L41.75-1.9Q43.8-1.9 45.37-2.53 46.95-3.15 48.8-4.5L48.8-4.5 50.15-2.65Q48.2-1.05 46.15-0.25 44.1 0.55 41.6 0.55L41.6 0.55Q36.4 0.55 33.45-3 30.5-6.55 30.5-12.85L30.5-12.85Q30.5-17 31.77-20.13 33.05-23.25 35.42-24.98 37.8-26.7 40.95-26.7L40.95-26.7Q45.95-26.7 48.55-23.33 51.15-19.95 51.15-14.05L51.15-14.05ZM48.3-14.2L48.3-14.95Q48.3-19.35 46.47-21.83 44.65-24.3 41.05-24.3L41.05-24.3Q37.8-24.3 35.8-21.8 33.8-19.3 33.6-14.2L33.6-14.2 48.3-14.2ZM77.94-28.4L78.84-25.6Q76.44-24.95 71.59-24.85L71.59-24.85Q76.05-22.75 76.05-17.75L76.05-17.75Q76.05-13.9 73.5-11.53 70.94-9.15 66.59-9.15L66.59-9.15Q64.64-9.15 63.2-9.65L63.2-9.65Q62.24-9.1 61.72-8.33 61.2-7.55 61.2-6.65L61.2-6.65Q61.2-3.95 65.34-3.95L65.34-3.95 69.59-3.95Q73.44-3.95 75.72-2.08 78-0.2 78 2.75L78 2.75Q78 6.35 75.14 8.3 72.3 10.25 66.64 10.25L66.64 10.25Q60.8 10.25 58.27 8.47 55.74 6.7 55.74 2.75L55.74 2.75 58.45 2.75Q58.49 4.65 59.24 5.75 59.99 6.85 61.74 7.35 63.49 7.85 66.64 7.85L66.64 7.85Q71.05 7.85 73.05 6.58 75.05 5.3 75.05 2.9L75.05 2.9Q75.05 0.8 73.5-0.33 71.94-1.45 69.14-1.45L69.14-1.45 64.89-1.45Q61.8-1.45 60.12-2.75 58.45-4.05 58.45-6.05L58.45-6.05Q58.45-7.35 59.2-8.5 59.95-9.65 61.3-10.5L61.3-10.5Q59.05-11.65 57.97-13.45 56.89-15.25 56.89-17.85L56.89-17.85Q56.89-21.8 59.55-24.25 62.2-26.7 66.5-26.7L66.5-26.7Q71.25-26.65 73.42-27.05 75.59-27.45 77.94-28.4L77.94-28.4ZM66.5-24.45Q63.24-24.45 61.57-22.65 59.89-20.85 59.89-17.85L59.89-17.85Q59.89-14.75 61.67-13 63.45-11.25 66.5-11.25L66.5-11.25Q69.69-11.25 71.39-12.98 73.09-14.7 73.09-17.8L73.09-17.8Q73.09-20.95 71.42-22.7 69.75-24.45 66.5-24.45L66.5-24.45ZM103.09-14.05Q103.09-12.95 102.99-11.95L102.99-11.95 85.54-11.95Q85.79-6.85 87.97-4.38 90.14-1.9 93.69-1.9L93.69-1.9Q95.74-1.9 97.32-2.53 98.89-3.15 100.74-4.5L100.74-4.5 102.09-2.65Q100.14-1.05 98.09-0.25 96.04 0.55 93.54 0.55L93.54 0.55Q88.34 0.55 85.39-3 82.44-6.55 82.44-12.85L82.44-12.85Q82.44-17 83.72-20.13 84.99-23.25 87.37-24.98 89.74-26.7 92.89-26.7L92.89-26.7Q97.89-26.7 100.49-23.33 103.09-19.95 103.09-14.05L103.09-14.05ZM100.24-14.2L100.24-14.95Q100.24-19.35 98.42-21.83 96.59-24.3 92.99-24.3L92.99-24.3Q89.74-24.3 87.74-21.8 85.74-19.3 85.54-14.2L85.54-14.2 100.24-14.2ZM122.09-3.1L123.24-1.1Q120.74 0.55 117.74 0.55L117.74 0.55Q114.74 0.55 113.04-1.23 111.34-3 111.34-6.35L111.34-6.35 111.34-23.8 106.94-23.8 106.94-26.15 111.34-26.15 111.34-32.4 114.24-32.75 114.24-26.15 120.99-26.15 120.64-23.8 114.24-23.8 114.24-6.5Q114.24-4.2 115.19-3.08 116.14-1.95 118.09-1.95L118.09-1.95Q120.09-1.95 122.09-3.1L122.09-3.1ZM144.64-5.8Q144.64-3.75 145.16-2.85 145.69-1.95 146.84-1.5L146.84-1.5 146.19 0.55Q144.39 0.2 143.41-0.8 142.44-1.8 142.14-3.85L142.14-3.85Q139.44 0.55 133.99 0.55L133.99 0.55Q130.24 0.55 128.06-1.58 125.89-3.7 125.89-7.25L125.89-7.25Q125.89-11.3 128.76-13.5 131.64-15.7 136.74-15.7L136.74-15.7 141.74-15.7 141.74-18.25Q141.74-21.4 140.34-22.83 138.94-24.25 135.69-24.25L135.69-24.25Q132.69-24.25 128.59-22.75L128.59-22.75 127.84-24.95Q132.24-26.7 136.09-26.7L136.09-26.7Q144.64-26.7 144.64-18.4L144.64-18.4 144.64-5.8ZM134.49-1.8Q139.19-1.8 141.74-6.4L141.74-6.4 141.74-13.6 137.19-13.6Q133.19-13.6 131.09-12.05 128.99-10.5 128.99-7.4L128.99-7.4Q128.99-4.7 130.44-3.25 131.89-1.8 134.49-1.8L134.49-1.8ZM165.34-26.7Q166.89-26.7 167.94-26.4L167.94-26.4 167.39-23.65Q166.29-23.95 165.09-23.95L165.09-23.95Q162.44-23.95 160.81-22.03 159.19-20.1 158.09-16L158.09-16 158.09 0 155.19 0 155.19-26.15 157.69-26.15 157.94-20.3Q158.99-23.55 160.81-25.13 162.64-26.7 165.34-26.7L165.34-26.7ZM173.83-26.15L176.73-26.15 176.73 0 173.83 0 173.83-26.15ZM175.23-37.65Q176.23-37.65 176.83-37.05 177.43-36.45 177.43-35.55L177.43-35.55Q177.43-34.65 176.83-34.05 176.23-33.45 175.23-33.45L175.23-33.45Q174.28-33.45 173.68-34.05 173.08-34.65 173.08-35.55L173.08-35.55Q173.08-36.45 173.68-37.05 174.28-37.65 175.23-37.65L175.23-37.65ZM203.58-5.8Q203.58-3.75 204.11-2.85 204.63-1.95 205.78-1.5L205.78-1.5 205.13 0.55Q203.33 0.2 202.36-0.8 201.38-1.8 201.08-3.85L201.08-3.85Q198.38 0.55 192.93 0.55L192.93 0.55Q189.18 0.55 187.01-1.58 184.83-3.7 184.83-7.25L184.83-7.25Q184.83-11.3 187.71-13.5 190.58-15.7 195.68-15.7L195.68-15.7 200.68-15.7 200.68-18.25Q200.68-21.4 199.28-22.83 197.88-24.25 194.63-24.25L194.63-24.25Q191.63-24.25 187.53-22.75L187.53-22.75 186.78-24.95Q191.18-26.7 195.03-26.7L195.03-26.7Q203.58-26.7 203.58-18.4L203.58-18.4 203.58-5.8ZM193.43-1.8Q198.13-1.8 200.68-6.4L200.68-6.4 200.68-13.6 196.13-13.6Q192.13-13.6 190.03-12.05 187.93-10.5 187.93-7.4L187.93-7.4Q187.93-4.7 189.38-3.25 190.83-1.8 193.43-1.8L193.43-1.8ZM225.68-26.7Q229.23-26.7 231.1-24.6 232.98-22.5 232.98-18.7L232.98-18.7 232.98 0 230.08 0 230.08-18.3Q230.08-21.45 228.83-22.9 227.58-24.35 225.13-24.35L225.13-24.35Q222.63-24.35 220.7-22.98 218.78-21.6 217.03-18.95L217.03-18.95 217.03 0 214.13 0 214.13-26.15 216.63-26.15 216.93-21.7Q218.53-24.05 220.73-25.38 222.93-26.7 225.68-26.7L225.68-26.7ZM276.22 0L267.37-15.35 260.52-15.35 260.52 0 257.52 0 257.52-34.25 265.82-34.25Q278.02-34.25 278.02-24.95L278.02-24.95Q278.02-21.25 276.07-19.05 274.12-16.85 270.37-15.9L270.37-15.9 279.77 0 276.22 0ZM260.52-17.8L266.22-17.8Q274.82-17.8 274.82-24.95L274.82-24.95Q274.82-28.45 272.67-30.13 270.52-31.8 265.72-31.8L265.72-31.8 260.52-31.8 260.52-17.8ZM305.32-14.05Q305.32-12.95 305.22-11.95L305.22-11.95 287.77-11.95Q288.02-6.85 290.2-4.38 292.37-1.9 295.92-1.9L295.92-1.9Q297.97-1.9 299.55-2.53 301.12-3.15 302.97-4.5L302.97-4.5 304.32-2.65Q302.37-1.05 300.32-0.25 298.27 0.55 295.77 0.55L295.77 0.55Q290.57 0.55 287.62-3 284.67-6.55 284.67-12.85L284.67-12.85Q284.67-17 285.95-20.13 287.22-23.25 289.6-24.98 291.97-26.7 295.12-26.7L295.12-26.7Q300.12-26.7 302.72-23.33 305.32-19.95 305.32-14.05L305.32-14.05ZM302.47-14.2L302.47-14.95Q302.47-19.35 300.65-21.83 298.82-24.3 295.22-24.3L295.22-24.3Q291.97-24.3 289.97-21.8 287.97-19.3 287.77-14.2L287.77-14.2 302.47-14.2ZM319.97-26.7Q322.42-26.7 324.42-25.98 326.42-25.25 328.32-23.8L328.32-23.8 326.97-21.9Q325.17-23.15 323.57-23.73 321.97-24.3 320.07-24.3L320.07-24.3Q317.47-24.3 315.87-23.1 314.27-21.9 314.27-19.9L314.27-19.9Q314.27-18 315.64-16.95 317.02-15.9 320.62-14.95L320.62-14.95Q325.07-13.8 327.04-12.05 329.02-10.3 329.02-7.05L329.02-7.05Q329.02-3.55 326.32-1.5 323.62 0.55 319.57 0.55L319.57 0.55Q316.57 0.55 314.32-0.33 312.07-1.2 310.22-2.8L310.22-2.8 311.82-4.65Q313.57-3.25 315.39-2.58 317.22-1.9 319.52-1.9L319.52-1.9Q322.42-1.9 324.19-3.23 325.97-4.55 325.97-6.9L325.97-6.9Q325.97-8.5 325.37-9.5 324.77-10.5 323.32-11.23 321.87-11.95 319.07-12.7L319.07-12.7Q314.92-13.8 313.09-15.45 311.27-17.1 311.27-19.85L311.27-19.85Q311.27-21.8 312.42-23.38 313.57-24.95 315.54-25.83 317.52-26.7 319.97-26.7L319.97-26.7ZM347.52-3.1L348.67-1.1Q346.17 0.55 343.17 0.55L343.17 0.55Q340.17 0.55 338.47-1.23 336.77-3 336.77-6.35L336.77-6.35 336.77-23.8 332.37-23.8 332.37-26.15 336.77-26.15 336.77-32.4 339.67-32.75 339.67-26.15 346.42-26.15 346.07-23.8 339.67-23.8 339.67-6.5Q339.67-4.2 340.62-3.08 341.57-1.95 343.52-1.95L343.52-1.95Q345.52-1.95 347.52-3.1L347.52-3.1ZM363.96-26.7Q365.51-26.7 366.56-26.4L366.56-26.4 366.01-23.65Q364.91-23.95 363.71-23.95L363.71-23.95Q361.06-23.95 359.44-22.03 357.81-20.1 356.71-16L356.71-16 356.71 0 353.81 0 353.81-26.15 356.31-26.15 356.56-20.3Q357.61-23.55 359.44-25.13 361.26-26.7 363.96-26.7L363.96-26.7ZM388.71-5.8Q388.71-3.75 389.24-2.85 389.76-1.95 390.91-1.5L390.91-1.5 390.26 0.55Q388.46 0.2 387.49-0.8 386.51-1.8 386.21-3.85L386.21-3.85Q383.51 0.55 378.06 0.55L378.06 0.55Q374.31 0.55 372.14-1.58 369.96-3.7 369.96-7.25L369.96-7.25Q369.96-11.3 372.84-13.5 375.71-15.7 380.81-15.7L380.81-15.7 385.81-15.7 385.81-18.25Q385.81-21.4 384.41-22.83 383.01-24.25 379.76-24.25L379.76-24.25Q376.76-24.25 372.66-22.75L372.66-22.75 371.91-24.95Q376.31-26.7 380.16-26.7L380.16-26.7Q388.71-26.7 388.71-18.4L388.71-18.4 388.71-5.8ZM378.56-1.8Q383.26-1.8 385.81-6.4L385.81-6.4 385.81-13.6 381.26-13.6Q377.26-13.6 375.16-12.05 373.06-10.5 373.06-7.4L373.06-7.4Q373.06-4.7 374.51-3.25 375.96-1.8 378.56-1.8L378.56-1.8ZM417.61-26.15L417.61 0 415.11 0 414.96-4.65Q411.86 0.55 406.41 0.55L406.41 0.55Q402.86 0.55 400.93-1.53 399.01-3.6 399.01-7.45L399.01-7.45 399.01-26.15 401.91-26.15 401.91-7.75Q401.91-4.7 403.18-3.28 404.46-1.85 407.06-1.85L407.06-1.85Q411.61-1.85 414.71-7.2L414.71-7.2 414.71-26.15 417.61-26.15ZM439.76-26.7Q443.31-26.7 445.18-24.6 447.06-22.5 447.06-18.7L447.06-18.7 447.06 0 444.16 0 444.16-18.3Q444.16-21.45 442.91-22.9 441.66-24.35 439.21-24.35L439.21-24.35Q436.71-24.35 434.78-22.98 432.86-21.6 431.11-18.95L431.11-18.95 431.11 0 428.21 0 428.21-26.15 430.71-26.15 431.01-21.7Q432.61-24.05 434.81-25.38 437.01-26.7 439.76-26.7L439.76-26.7ZM468.15-3.1L469.3-1.1Q466.8 0.55 463.8 0.55L463.8 0.55Q460.8 0.55 459.1-1.23 457.4-3 457.4-6.35L457.4-6.35 457.4-23.8 453-23.8 453-26.15 457.4-26.15 457.4-32.4 460.3-32.75 460.3-26.15 467.05-26.15 466.7-23.8 460.3-23.8 460.3-6.5Q460.3-4.2 461.25-3.08 462.2-1.95 464.15-1.95L464.15-1.95Q466.15-1.95 468.15-3.1L468.15-3.1Z" opacity="1" transform="matrix(1,0,0,1,0,0)" fill="#ffffff" class="slogan-text-1" data-fill-palette-color="secondary" id="text-1"></path></svg></g></svg></g></svg></g></svg></g><g><svg viewBox="0 0 186.63318474303549 186.63318474303549" height="186.63318474303549" width="186.63318474303549"><g><svg></svg></g><g id="icon-0"><svg viewBox="0 0 186.63318474303549 186.63318474303549" height="186.63318474303549" width="186.63318474303549"><g><path d="M0 93.317c0-51.537 41.779-93.317 93.317-93.317 51.537 0 93.317 41.779 93.316 93.317 0 51.537-41.779 93.317-93.316 93.316-51.537 0-93.317-41.779-93.317-93.316zM93.317 182.793c49.417 0 89.477-40.06 89.476-89.476 0-49.417-40.06-89.477-89.476-89.477-49.417 0-89.477 40.06-89.477 89.477 0 49.417 40.06 89.477 89.477 89.476z" data-fill-palette-color="accent" fill="#bf2051" stroke="transparent"></path></g><g transform="matrix(1,0,0,1,38.688279559196104,38.688969843923665)"><svg viewBox="0 0 109.25662562464328 109.25524505518815" height="109.25524505518815" width="109.25662562464328"><g><svg xmlns="http://www.w3.org/2000/svg" xmlns:xlink="http://www.w3.org/1999/xlink" version="1.1" x="0" y="0" viewBox="0 0 32.000404357910156 32" enable-background="new 0 0 32 32" xml:space="preserve" width="109.25662562464328" height="109.25524505518815" class="icon-s-0" data-fill-palette-color="accent" id="s-0"><g fill="#bf2051" data-fill-palette-color="accent"><path fill="#bf2051" d="M29.5 21h-2.691c-0.045-0.239-0.1-0.473-0.16-0.706l4.799-2.399c0.494-0.247 0.693-0.848 0.447-1.342-0.248-0.494-0.846-0.692-1.342-0.447l-4.578 2.288C24.229 14.626 20.42 12 16 12c-5.382 0-9.865 3.888-10.809 9H2.5C1.122 21 0 22.121 0 23.5c0 0.49 0.18 0.963 0.505 1.329L4 28.761V29.5C4 30.879 5.122 32 6.5 32h19c1.379 0 2.5-1.121 2.5-2.5v-0.739l3.494-3.932C31.82 24.463 32 23.99 32 23.5 32 22.121 30.879 21 29.5 21zM25.799 21h-0.562l0.498-0.25C25.754 20.834 25.781 20.915 25.799 21zM16 13c4.029 0 7.5 2.4 9.082 5.841l-0.891 0.445C22.775 16.171 19.645 14 16 14c-4.282 0-7.859 2.993-8.77 7H6.202C7.131 16.441 11.171 13 16 13zM20.576 21c-0.773-1.763-2.531-3-4.576-3s-3.802 1.237-4.576 3H10.35c0.826-2.326 3.043-4 5.65-4 2.465 0 4.588 1.496 5.508 3.627L20.764 21H20.576zM16 20c-0.883 0-1.67 0.391-2.22 1h-1.224c0.694-1.189 1.97-2 3.444-2 1.473 0 2.75 0.811 3.443 2h-1.225C17.67 20.391 16.883 20 16 20zM16 16c-3.165 0-5.842 2.112-6.705 5H8.263c0.892-3.444 4.017-6 7.737-6 3.246 0 6.043 1.948 7.295 4.734l-0.893 0.446C21.314 17.723 18.855 16 16 16zM26 28v1.5c0 0.276-0.225 0.5-0.5 0.5h-19C6.224 30 6 29.776 6 29.5V28l-4-4.5C2 23.224 2.224 23 2.5 23H5h1 1 1 1 1 1 1 1 6 1 1 1 1 1 1 1 1 2.5c0.275 0 0.5 0.224 0.5 0.5L26 28z" data-fill-palette-color="accent"></path><path fill="#bf2051" d="M7.977 11.712c0.003 0.006 0.005 0.012 0.008 0.018 0 0 0.001 0 0.002 0C8.07 11.89 8.236 12 8.43 12c0.277 0 0.502-0.226 0.502-0.503 0-0.043-0.007-0.085-0.018-0.125 0.002-0.007 0.002-0.013 0-0.02-0.375-0.882-0.019-1.85 0.419-2.892 0.473-1.126 0.98-2.376 0.422-3.647C9.684 4.63 9.507 4.5 9.299 4.5c-0.271 0-0.49 0.22-0.49 0.49 0 0.06 0.012 0.116 0.032 0.169 0 0.002 0 0.004 0.001 0.006 0.001 0.003 0.002 0.006 0.003 0.009C8.847 5.178 8.848 5.182 8.85 5.186c0.404 0.909 0.013 1.841-0.428 2.893C7.956 9.188 7.44 10.417 7.959 11.67 7.965 11.685 7.97 11.698 7.977 11.712z" data-fill-palette-color="accent"></path><path fill="#bf2051" d="M20.154 11.566c0.004 0.006 0.006 0.012 0.008 0.018h0.002c0.084 0.16 0.25 0.271 0.443 0.271 0.277 0 0.504-0.226 0.504-0.503 0-0.043-0.008-0.085-0.018-0.125 0.002-0.007 0.002-0.013-0.002-0.02-0.373-0.882-0.018-1.85 0.42-2.892 0.473-1.126 0.98-2.376 0.422-3.647-0.072-0.184-0.248-0.313-0.457-0.313-0.27 0-0.49 0.22-0.49 0.49 0 0.06 0.014 0.116 0.033 0.169 0 0.002 0 0.004 0 0.006 0.002 0.003 0.002 0.006 0.004 0.009 0.002 0.004 0.004 0.008 0.004 0.012 0.404 0.909 0.014 1.841-0.428 2.893-0.465 1.109-0.98 2.339-0.461 3.592C20.143 11.539 20.148 11.553 20.154 11.566z" data-fill-palette-color="accent"></path><path fill="#bf2051" d="M15.019 7.212c0.003 0.006 0.005 0.012 0.008 0.018 0 0 0.001 0 0.002 0 0.084 0.16 0.25 0.271 0.443 0.271 0.277 0 0.502-0.226 0.502-0.503 0-0.043-0.007-0.085-0.018-0.125 0.002-0.007 0.002-0.013 0-0.02-0.375-0.882-0.019-1.85 0.419-2.892 0.473-1.126 0.98-2.376 0.422-3.647C16.725 0.13 16.549 0 16.34 0c-0.27 0-0.49 0.22-0.49 0.49 0 0.06 0.012 0.116 0.032 0.169 0 0.002 0 0.004 0.001 0.006 0.001 0.003 0.002 0.006 0.003 0.009 0.001 0.004 0.003 0.008 0.004 0.012 0.404 0.909 0.013 1.841-0.428 2.893-0.466 1.109-0.982 2.339-0.462 3.592C15.007 7.185 15.012 7.198 15.019 7.212z" data-fill-palette-color="accent"></path></g></svg></g></svg></g></svg></g></svg></g></svg></g><defs></defs></svg><rect width="395.52" height="122.56746151337859" fill="none" stroke="none" visibility="hidden"></rect></g></svg></g></svg>